<?xml version="1.0" encoding="UTF-8" standalone="no"?>
<svg
   viewBox="0 0 135.17999 123.78"
   version="1.1"
   id="svg8"
   sodipodi:docname="315949ff623122869508aabcd20d62f0.svg"
   width="120"
   height="120"
   xmlns:inkscape="http://www.inkscape.org/namespaces/inkscape"
   xmlns:sodipodi="http://sodipodi.sourceforge.net/DTD/sodipodi-0.dtd"
   xmlns="http://www.w3.org/2000/svg"
   xmlns:svg="http://www.w3.org/2000/svg">
  <sodipodi:namedview
     id="namedview10"
     pagecolor="#ffffff"
     bordercolor="#666666"
     borderopacity="1.0"
     inkscape:pageshadow="2"
     inkscape:pageopacity="0.0"
     inkscape:pagecheckerboard="0" />
  <defs
     id="defs4">
    <style
       id="style2">.cls-1{fill:#09d3ac}</style>
  </defs>
  <path
     d="m 123.46,55.39 c 0,-6.89 -8.11,-13 -20.58,-16.73 3,-12.67 1.69,-22.75 -4.28,-26.16 A 9.55,9.55 0 0 0 93.81,11.3 C 88.24,11.3 81.2,15.19 74.09,21.92 66.98,15.24 59.96,11.37 54.4,11.37 a 9.46,9.46 0 0 0 -4.86,1.22 c -5.94,3.42 -7.17,13.44 -4.21,26.05 -12.41,3.71 -20.48,9.77 -20.5,16.63 -0.02,6.86 8.12,13 20.59,16.72 -3,12.68 -1.7,22.75 4.28,26.16 a 9.41,9.41 0 0 0 4.78,1.2 c 5.58,0 12.62,-3.89 19.73,-10.62 7.1,6.68 14.12,10.55 19.69,10.55 a 9.59,9.59 0 0 0 4.86,-1.22 c 5.94,-3.42 7.16,-13.44 4.21,-26 12.41,-3.76 20.48,-9.82 20.49,-16.67 z M 78.67,24.18 c 8.19,-7.33 13.31,-8.12 15.13,-8.12 v 0 a 4.71,4.71 0 0 1 2.42,0.58 c 2.86,1.63 4,7.38 3.09,15 a 56.73,56.73 0 0 1 -1,5.79 97.7,97.7 0 0 0 -12.58,-2.07 98.47,98.47 0 0 0 -8.24,-10.08 c 0.37,-0.37 0.77,-0.74 1.18,-1.1 z M 53.88,61.06 c 0.78,1.5 1.61,3 2.47,4.51 0.86,1.51 1.76,3.04 2.76,4.55 -2.71,-0.39 -5.34,-0.88 -7.84,-1.46 0.7,-2.54 1.59,-5.04 2.61,-7.6 z M 51.11,42.02 c 2.53,-0.59 5.18,-1.08 7.93,-1.46 -1,1.48 -1.86,3 -2.76,4.59 -0.9,1.59 -1.69,3 -2.46,4.52 q -1.53,-3.9 -2.71,-7.65 z m 5.21,13.34 q 1.86,-3.93 4.09,-7.86 c 1.5,-2.62 3.11,-5.17 4.77,-7.61 2.91,-0.22 5.91,-0.34 9,-0.33 3.09,0.01 6,0.12 8.89,0.35 1.66,2.42 3.25,5 4.75,7.55 1.5,2.55 2.88,5.22 4.12,7.83 -1.23,2.62 -2.6,5.25 -4.08,7.85 -1.48,2.6 -3.11,5.18 -4.77,7.62 -2.91,0.23 -5.91,0.34 -9,0.34 -3.09,0 -6,-0.13 -8.89,-0.36 -1.66,-2.42 -3.26,-4.94 -4.76,-7.55 -1.5,-2.61 -2.83,-5.22 -4.08,-7.83 z M 89.18,40.59 c 2.72,0.38 5.35,0.87 7.84,1.45 -0.74,2.47 -1.62,5 -2.64,7.55 -0.79,-1.5 -1.61,-3 -2.48,-4.51 -0.87,-1.51 -1.79,-3.03 -2.68,-4.49 z m 2.76,24.92 q 1.29,-2.27 2.46,-4.53 c 1,2.6 2,5.16 2.7,7.66 -2.52,0.59 -5.17,1.07 -7.92,1.45 q 1.45,-2.22 2.8,-4.58 z M 74.11,28.68 c 1.8,1.92 3.57,4 5.3,6.23 -1.71,-0.07 -3.46,-0.12 -5.23,-0.12 -1.77,0 -3.58,0 -5.33,0.12 1.71,-2.22 3.46,-4.31 5.26,-6.23 z m -22.18,-12 a 4.82,4.82 0 0 1 2.47,-0.56 13.11,13.11 0 0 1 5.19,1.31 39.07,39.07 0 0 1 10,6.78 l 1.17,1.07 a 98.49,98.49 0 0 0 -8.16,10 98.88,98.88 0 0 0 -12.65,2.06 c -0.44,-1.94 -0.8,-3.84 -1,-5.67 -1.04,-7.55 0.16,-13.31 2.97,-14.95 z m -5.29,50.7 a 58.75,58.75 0 0 1 -5.54,-2 c -7.1,-3 -11.5,-6.85 -11.5,-10.14 0,-3.29 4.42,-7.12 11.51,-10.07 a 57.63,57.63 0 0 1 5.44,-1.94 97.93,97.93 0 0 0 4.56,12.14 98.72,98.72 0 0 0 -4.47,12.01 z m 23,19.1 c -8.19,7.33 -13.31,8.11 -15.14,8.11 a 4.69,4.69 0 0 1 -2.42,-0.58 c -2.86,-1.63 -4,-7.38 -3.09,-15 a 56.07,56.07 0 0 1 1,-5.78 99.51,99.51 0 0 0 12.58,2.06 97.17,97.17 0 0 0 8.24,10.08 z m 4.57,-4.51 c -1.8,-1.92 -3.57,-4 -5.31,-6.23 1.72,0.08 3.47,0.12 5.24,0.12 1.77,0 3.58,0 5.33,-0.11 -1.73,2.22 -3.49,4.3 -5.27,6.22 z m 22.18,12 a 4.82,4.82 0 0 1 -2.48,0.59 c -1.82,0 -7,-0.8 -15.16,-8.1 l -1.17,-1.07 a 98.44,98.44 0 0 0 8.15,-10 97,97 0 0 0 12.66,-2.06 c 0.44,1.94 0.79,3.84 1,5.67 0.99,7.54 -0.16,13.3 -3.01,14.93 z m 10.8,-28.44 c -1.71,0.7 -3.52,1.35 -5.44,1.93 a 98.54,98.54 0 0 0 -4.57,-12.14 98.1,98.1 0 0 0 4.49,-12 58.75,58.75 0 0 1 5.54,2 c 7.09,3 11.5,6.85 11.49,10.14 -0.01,3.29 -4.42,7.08 -11.52,10.03 z M 74.11,64.51 a 9.18,9.18 0 1 0 -9.17,-9.19 9.17,9.17 0 0 0 9.17,9.19 z M 13.11,0 V 110.65 H 135.18 V 0 Z m 117.3,105.89 H 17.89 V 4.77 h 112.52 z m -85,-33.9 c -3,12.68 -1.7,22.75 4.28,26.16 a 9.41,9.41 0 0 0 4.78,1.2 c 5.58,0 12.62,-3.89 19.73,-10.62 7.1,6.68 14.12,10.55 19.69,10.55 a 9.59,9.59 0 0 0 4.86,-1.22 c 5.94,-3.42 7.16,-13.44 4.21,-26 12.41,-3.72 20.48,-9.78 20.49,-16.63 0.01,-6.85 -8.11,-13 -20.58,-16.73 3,-12.67 1.69,-22.75 -4.28,-26.16 a 9.55,9.55 0 0 0 -4.79,-1.2 c -5.57,0 -12.61,3.89 -19.72,10.62 C 66.97,15.28 59.95,11.41 54.39,11.41 a 9.46,9.46 0 0 0 -4.86,1.22 c -5.94,3.42 -7.17,13.44 -4.21,26.05 -12.41,3.71 -20.48,9.77 -20.5,16.63 -0.02,6.86 8.13,12.94 20.6,16.68 z m 24.21,14.49 c -8.19,7.33 -13.31,8.11 -15.14,8.11 a 4.69,4.69 0 0 1 -2.42,-0.58 c -2.86,-1.63 -4,-7.38 -3.09,-15 a 56.07,56.07 0 0 1 1,-5.78 99.51,99.51 0 0 0 12.58,2.06 97.17,97.17 0 0 0 8.24,10.08 z M 94.41,49.59 c -0.79,-1.5 -1.61,-3 -2.48,-4.51 -0.87,-1.51 -1.8,-3 -2.72,-4.49 2.72,0.38 5.35,0.87 7.84,1.45 -0.73,2.47 -1.61,5 -2.63,7.55 z m 2.72,19 c -2.52,0.59 -5.17,1.07 -7.92,1.45 q 1.41,-2.22 2.76,-4.58 1.35,-2.36 2.46,-4.53 c 1.05,2.65 1.96,5.19 2.68,7.71 z M 91.92,55.24 c -1.23,2.62 -2.6,5.25 -4.08,7.85 -1.48,2.6 -3.11,5.18 -4.77,7.62 -2.91,0.23 -5.91,0.34 -9,0.34 -3.09,0 -6,-0.13 -8.89,-0.36 -1.66,-2.42 -3.26,-4.94 -4.76,-7.55 -1.5,-2.61 -2.87,-5.22 -4.12,-7.83 q 1.86,-3.93 4.09,-7.86 c 1.5,-2.62 3.11,-5.17 4.77,-7.61 2.91,-0.22 5.91,-0.34 9,-0.33 3.09,0.01 6,0.12 8.89,0.35 1.66,2.42 3.25,5 4.75,7.55 1.5,2.55 2.89,5.27 4.13,7.88 z M 59.11,70.12 c -2.71,-0.39 -5.34,-0.88 -7.84,-1.46 0.74,-2.46 1.63,-5 2.65,-7.55 0.78,1.5 1.61,3 2.47,4.51 0.86,1.51 1.72,2.99 2.72,4.5 z m -2.79,-25 c -0.87,1.5 -1.69,3 -2.46,4.52 q -1.57,-3.87 -2.75,-7.62 c 2.53,-0.59 5.18,-1.08 7.93,-1.46 -0.93,1.48 -1.82,3.01 -2.72,4.56 z M 74.2,81.97 c -1.8,-1.92 -3.57,-4 -5.31,-6.23 1.72,0.08 3.47,0.12 5.24,0.12 1.77,0 3.58,0 5.33,-0.11 -1.72,2.22 -3.48,4.3 -5.26,6.22 z m 22.18,12 a 4.82,4.82 0 0 1 -2.48,0.59 c -1.82,0 -7,-0.8 -15.16,-8.1 l -1.17,-1.07 a 98.44,98.44 0 0 0 8.15,-10 97,97 0 0 0 12.66,-2.06 c 0.44,1.94 0.79,3.84 1,5.67 1,7.54 -0.15,13.3 -3,14.93 z m 5.28,-50.66 a 58.75,58.75 0 0 1 5.54,2 c 7.09,3 11.5,6.85 11.49,10.14 -0.01,3.29 -4.41,7.16 -11.51,10.11 -1.71,0.7 -3.52,1.35 -5.44,1.93 a 98.54,98.54 0 0 0 -4.57,-12.14 98.1,98.1 0 0 0 4.49,-12.08 z m -23,-19.09 C 86.85,16.89 91.97,16.1 93.79,16.1 v 0 a 4.71,4.71 0 0 1 2.42,0.58 c 2.86,1.63 4,7.38 3.09,15 a 56.73,56.73 0 0 1 -1,5.79 A 97.7,97.7 0 0 0 85.72,35.4 98.47,98.47 0 0 0 77.48,25.32 c 0.38,-0.41 0.78,-0.78 1.19,-1.14 z m -4.55,4.46 c 1.8,1.92 3.57,4 5.3,6.23 -1.71,-0.07 -3.46,-0.12 -5.23,-0.12 -1.77,0 -3.58,0 -5.33,0.12 1.71,-2.22 3.46,-4.31 5.26,-6.23 z m -22.18,-12 a 4.82,4.82 0 0 1 2.47,-0.56 13.11,13.11 0 0 1 5.19,1.31 39.07,39.07 0 0 1 10,6.78 l 1.17,1.07 a 98.49,98.49 0 0 0 -8.16,10 98.88,98.88 0 0 0 -12.65,2.06 c -0.44,-1.94 -0.8,-3.84 -1,-5.67 -1.04,-7.55 0.16,-13.31 2.97,-14.95 z M 41.11,45.17 a 57.63,57.63 0 0 1 5.44,-1.94 97.93,97.93 0 0 0 4.56,12.14 98.72,98.72 0 0 0 -4.49,12 58.75,58.75 0 0 1 -5.54,-2 c -7.1,-3 -11.5,-6.85 -11.5,-10.14 0,-3.29 4.44,-7.11 11.53,-10.06 z m 33,1 a 9.18,9.18 0 1 0 9.17,9.19 9.17,9.17 0 0 0 -9.17,-9.24 z m 0,0 a 9.18,9.18 0 1 0 9.17,9.19 9.17,9.17 0 0 0 -9.17,-9.24 z m 0,0 a 9.18,9.18 0 1 0 9.17,9.19 9.17,9.17 0 0 0 -9.17,-9.24 z m 49.35,9.24 c 0,-6.89 -8.11,-13 -20.58,-16.73 3,-12.67 1.69,-22.75 -4.28,-26.16 a 9.55,9.55 0 0 0 -4.79,-1.2 C 88.24,11.32 81.2,15.21 74.09,21.94 66.98,15.26 59.96,11.39 54.4,11.39 a 9.46,9.46 0 0 0 -4.86,1.22 c -5.94,3.42 -7.17,13.44 -4.21,26.05 -12.41,3.71 -20.48,9.77 -20.5,16.63 -0.02,6.86 8.12,13 20.59,16.72 -3,12.68 -1.7,22.75 4.28,26.16 a 9.41,9.41 0 0 0 4.78,1.2 c 5.58,0 12.62,-3.89 19.73,-10.62 7.1,6.68 14.12,10.55 19.69,10.55 a 9.59,9.59 0 0 0 4.86,-1.22 c 5.94,-3.42 7.16,-13.44 4.21,-26 12.41,-3.78 20.48,-9.84 20.49,-16.69 z M 78.67,24.18 c 8.19,-7.33 13.31,-8.12 15.13,-8.12 v 0 a 4.71,4.71 0 0 1 2.42,0.58 c 2.86,1.63 4,7.38 3.09,15 a 56.73,56.73 0 0 1 -1,5.79 97.7,97.7 0 0 0 -12.58,-2.07 98.47,98.47 0 0 0 -8.24,-10.08 c 0.37,-0.37 0.77,-0.74 1.18,-1.1 z M 53.88,61.06 c 0.78,1.5 1.61,3 2.47,4.51 0.86,1.51 1.76,3.04 2.76,4.55 -2.71,-0.39 -5.34,-0.88 -7.84,-1.46 0.7,-2.54 1.59,-5.04 2.61,-7.6 z M 51.11,42.02 c 2.53,-0.59 5.18,-1.08 7.93,-1.46 -1,1.48 -1.86,3 -2.76,4.59 -0.9,1.59 -1.69,3 -2.46,4.52 q -1.53,-3.9 -2.71,-7.65 z m 5.21,13.34 q 1.86,-3.93 4.09,-7.86 c 1.5,-2.62 3.11,-5.17 4.77,-7.61 2.91,-0.22 5.91,-0.34 9,-0.33 3.09,0.01 6,0.12 8.89,0.35 1.66,2.42 3.25,5 4.75,7.55 1.5,2.55 2.88,5.22 4.12,7.83 -1.23,2.62 -2.6,5.25 -4.08,7.85 -1.48,2.6 -3.11,5.18 -4.77,7.62 -2.91,0.23 -5.91,0.34 -9,0.34 -3.09,0 -6,-0.13 -8.89,-0.36 -1.66,-2.42 -3.26,-4.94 -4.76,-7.55 -1.5,-2.61 -2.83,-5.22 -4.08,-7.83 z M 89.18,40.59 c 2.72,0.38 5.35,0.87 7.84,1.45 -0.74,2.47 -1.62,5 -2.64,7.55 -0.79,-1.5 -1.61,-3 -2.48,-4.51 -0.87,-1.51 -1.79,-3.03 -2.68,-4.49 z m 2.76,24.92 q 1.29,-2.27 2.46,-4.53 c 1,2.6 2,5.16 2.7,7.66 -2.52,0.59 -5.17,1.07 -7.92,1.45 q 1.45,-2.22 2.8,-4.58 z M 74.11,28.68 c 1.8,1.92 3.57,4 5.3,6.23 -1.71,-0.07 -3.46,-0.12 -5.23,-0.12 -1.77,0 -3.58,0 -5.33,0.12 1.71,-2.22 3.46,-4.31 5.26,-6.23 z m -22.18,-12 a 4.82,4.82 0 0 1 2.47,-0.56 13.11,13.11 0 0 1 5.19,1.31 39.07,39.07 0 0 1 10,6.78 l 1.17,1.07 a 98.49,98.49 0 0 0 -8.16,10 98.88,98.88 0 0 0 -12.65,2.06 c -0.44,-1.94 -0.8,-3.84 -1,-5.67 -1.04,-7.55 0.16,-13.31 2.97,-14.95 z m -5.29,50.7 a 58.75,58.75 0 0 1 -5.54,-2 c -7.1,-3 -11.5,-6.85 -11.5,-10.14 0,-3.29 4.42,-7.12 11.51,-10.07 a 57.63,57.63 0 0 1 5.44,-1.94 97.93,97.93 0 0 0 4.56,12.14 98.72,98.72 0 0 0 -4.47,12.01 z m 23,19.1 c -8.19,7.33 -13.31,8.11 -15.14,8.11 a 4.69,4.69 0 0 1 -2.42,-0.58 c -2.86,-1.63 -4,-7.38 -3.09,-15 a 56.07,56.07 0 0 1 1,-5.78 99.51,99.51 0 0 0 12.58,2.06 97.17,97.17 0 0 0 8.24,10.08 z m 4.57,-4.51 c -1.8,-1.92 -3.57,-4 -5.31,-6.23 1.72,0.08 3.47,0.12 5.24,0.12 1.77,0 3.58,0 5.33,-0.11 -1.73,2.22 -3.49,4.3 -5.27,6.22 z m 22.18,12 a 4.82,4.82 0 0 1 -2.48,0.59 c -1.82,0 -7,-0.8 -15.16,-8.1 l -1.17,-1.07 a 98.44,98.44 0 0 0 8.15,-10 97,97 0 0 0 12.66,-2.06 c 0.44,1.94 0.79,3.84 1,5.67 0.99,7.54 -0.16,13.3 -3.01,14.93 z m 10.8,-28.44 c -1.71,0.7 -3.52,1.35 -5.44,1.93 a 98.54,98.54 0 0 0 -4.57,-12.14 98.1,98.1 0 0 0 4.49,-12 58.75,58.75 0 0 1 5.54,2 c 7.09,3 11.5,6.85 11.49,10.14 -0.01,3.29 -4.42,7.08 -11.52,10.03 z M 74.11,64.51 a 9.18,9.18 0 1 0 -9.17,-9.19 9.17,9.17 0 0 0 9.17,9.19 z M 4.79,119.01 V 8.32 L 0,13.12 v 110.66 h 122.05 l 4.78,-4.77 z"
     class="cls-1"
     id="path6" />
</svg>
