<svg width="138" height="41" viewBox="0 0 138 41" fill="#FFFFFF" xmlns="http://www.w3.org/2000/svg">
<path d="M23.8611 36.8132H0V0H23.8605V36.8126L23.8611 36.8132ZM14.9125 27.9765V35.3402H22.3693V27.9765H14.9125ZM1.49113 23.5599V35.3402H13.4214V23.5599H1.49113ZM14.9131 23.5599V26.5053H22.2581V23.5599H14.9131ZM1.49113 1.47238V22.0875H22.3687V1.47238H1.49113Z" fill="#FFFFFF"/>
<path d="M19.0783 23.3385H17.8065V26.4923H19.0783V23.3385Z" fill="#FFFFFF"/>
<path d="M36.372 23.7636H44.094V25.4376H38.118V29.5776H43.356V31.2516H38.118V36.7776H36.372V23.7636ZM46.2588 29.3256H47.9328V36.7776H46.2588V29.3256ZM46.1328 26.6436C46.1328 26.3676 46.2348 26.1456 46.4388 25.9776C46.6548 25.7976 46.8888 25.7076 47.1408 25.7076C47.3928 25.7076 47.6208 25.7976 47.8248 25.9776C48.0288 26.1456 48.1308 26.3676 48.1308 26.6436C48.1308 26.9196 48.0288 27.1476 47.8248 27.3276C47.6208 27.4956 47.3928 27.5796 47.1408 27.5796C46.8888 27.5796 46.6548 27.4956 46.4388 27.3276C46.2348 27.1476 46.1328 26.9196 46.1328 26.6436ZM55.4007 36.9576C54.7647 36.9576 54.2007 36.8376 53.7087 36.5976C53.2287 36.3456 52.8327 36.0276 52.5207 35.6436V36.7776H50.8467V22.8276H52.5207V30.3336C52.8207 29.9376 53.2407 29.6196 53.7807 29.3796C54.3207 29.1396 54.9327 29.0196 55.6167 29.0196C56.2767 29.0196 56.8827 29.1816 57.4347 29.5056C57.9867 29.8176 58.4307 30.2676 58.7667 30.8556C59.1027 31.4436 59.2707 32.1336 59.2707 32.9256C59.2707 33.7776 59.0907 34.5036 58.7307 35.1036C58.3707 35.7036 57.8967 36.1656 57.3087 36.4896C56.7207 36.8016 56.0847 36.9576 55.4007 36.9576ZM55.0407 35.5176C55.7727 35.5176 56.3727 35.2776 56.8407 34.7976C57.3207 34.3056 57.5607 33.6816 57.5607 32.9256C57.5607 32.4456 57.4467 32.0136 57.2187 31.6296C57.0027 31.2336 56.7027 30.9216 56.3187 30.6936C55.9467 30.4656 55.5207 30.3516 55.0407 30.3516C54.4167 30.3516 53.8767 30.5196 53.4207 30.8556C52.9647 31.1916 52.6647 31.6236 52.5207 32.1516V33.6816C52.6647 34.2096 52.9587 34.6476 53.4027 34.9956C53.8467 35.3436 54.3927 35.5176 55.0407 35.5176ZM60.8686 32.9796C60.8686 32.2356 61.0426 31.5636 61.3906 30.9636C61.7506 30.3636 62.2426 29.8896 62.8666 29.5416C63.4906 29.1936 64.2046 29.0196 65.0086 29.0196C65.8126 29.0196 66.5206 29.1936 67.1326 29.5416C67.7446 29.8896 68.2186 30.3636 68.5546 30.9636C68.9026 31.5636 69.0766 32.2356 69.0766 32.9796C69.0766 33.7236 68.9026 34.3956 68.5546 34.9956C68.2186 35.5956 67.7386 36.0756 67.1146 36.4356C66.5026 36.7836 65.7886 36.9576 64.9726 36.9576C64.1806 36.9576 63.4726 36.7956 62.8486 36.4716C62.2366 36.1476 61.7506 35.6856 61.3906 35.0856C61.0426 34.4856 60.8686 33.7836 60.8686 32.9796ZM62.5606 32.9976C62.5606 33.4776 62.6626 33.9156 62.8666 34.3116C63.0826 34.6956 63.3706 35.0016 63.7306 35.2296C64.0906 35.4576 64.4986 35.5716 64.9546 35.5716C65.4226 35.5716 65.8366 35.4576 66.1966 35.2296C66.5566 35.0016 66.8386 34.6956 67.0426 34.3116C67.2586 33.9156 67.3666 33.4776 67.3666 32.9976C67.3666 32.5176 67.2586 32.0856 67.0426 31.7016C66.8386 31.3056 66.5566 30.9936 66.1966 30.7656C65.8366 30.5256 65.4226 30.4056 64.9546 30.4056C64.4986 30.4056 64.0846 30.5256 63.7126 30.7656C63.3526 31.0056 63.0706 31.3236 62.8666 31.7196C62.6626 32.1036 62.5606 32.5296 62.5606 32.9976ZM72.8372 29.3256L72.9452 30.7656C73.1972 30.2376 73.5872 29.8176 74.1152 29.5056C74.6432 29.1936 75.2552 29.0376 75.9512 29.0376C76.6472 29.0376 77.2172 29.2476 77.6612 29.6676C78.1172 30.0756 78.3572 30.6096 78.3812 31.2696V36.7776H76.6892V31.8456C76.6652 31.4496 76.5392 31.1256 76.3112 30.8736C76.0952 30.6216 75.7532 30.4896 75.2852 30.4776C74.6372 30.4776 74.0912 30.7416 73.6472 31.2696C73.2152 31.7856 72.9992 32.4576 72.9992 33.2856V36.7776H71.3252V29.3256H72.8372ZM84.3884 36.9576C83.6804 36.9576 83.0384 36.8076 82.4624 36.5076C81.8984 36.2076 81.4484 35.7696 81.1124 35.1936C80.7884 34.6056 80.6264 33.8916 80.6264 33.0516C80.6264 32.2116 80.7944 31.4916 81.1304 30.8916C81.4784 30.2916 81.9404 29.8296 82.5164 29.5056C83.1044 29.1816 83.7464 29.0196 84.4424 29.0196C85.1144 29.0196 85.6844 29.1636 86.1524 29.4516C86.6204 29.7396 86.9864 30.0876 87.2504 30.4956L87.3764 29.3256H88.9244V36.7776H87.2504V35.5536C87.1064 35.7456 86.8964 35.9496 86.6204 36.1656C86.3564 36.3816 86.0324 36.5676 85.6484 36.7236C85.2764 36.8796 84.8564 36.9576 84.3884 36.9576ZM84.8384 35.5716C85.4504 35.5716 85.9724 35.4036 86.4044 35.0676C86.8364 34.7196 87.1184 34.2516 87.2504 33.6636V32.1876C87.1064 31.6716 86.8064 31.2456 86.3504 30.9096C85.8944 30.5736 85.3724 30.4056 84.7844 30.4056C84.3284 30.4056 83.9144 30.5136 83.5424 30.7296C83.1704 30.9456 82.8704 31.2456 82.6424 31.6296C82.4264 32.0136 82.3184 32.4576 82.3184 32.9616C82.3184 33.4536 82.4324 33.8976 82.6604 34.2936C82.8884 34.6776 83.1944 34.9896 83.5784 35.2296C83.9624 35.4576 84.3824 35.5716 84.8384 35.5716ZM91.8389 22.8276H93.5129V36.7776H91.8389V22.8276ZM99.5408 36.9576C98.8328 36.9576 98.1908 36.8076 97.6147 36.5076C97.0508 36.2076 96.6008 35.7696 96.2648 35.1936C95.9408 34.6056 95.7788 33.8916 95.7788 33.0516C95.7788 32.2116 95.9468 31.4916 96.2828 30.8916C96.6308 30.2916 97.0928 29.8296 97.6688 29.5056C98.2568 29.1816 98.8988 29.0196 99.5947 29.0196C100.267 29.0196 100.837 29.1636 101.305 29.4516C101.773 29.7396 102.139 30.0876 102.403 30.4956L102.529 29.3256H104.077V36.7776H102.403V35.5536C102.259 35.7456 102.049 35.9496 101.773 36.1656C101.509 36.3816 101.185 36.5676 100.801 36.7236C100.429 36.8796 100.009 36.9576 99.5408 36.9576ZM99.9908 35.5716C100.603 35.5716 101.125 35.4036 101.557 35.0676C101.989 34.7196 102.271 34.2516 102.403 33.6636V32.1876C102.259 31.6716 101.959 31.2456 101.503 30.9096C101.047 30.5736 100.525 30.4056 99.9368 30.4056C99.4808 30.4056 99.0668 30.5136 98.6948 30.7296C98.3228 30.9456 98.0228 31.2456 97.7948 31.6296C97.5788 32.0136 97.4708 32.4576 97.4708 32.9616C97.4708 33.4536 97.5848 33.8976 97.8128 34.2936C98.0408 34.6776 98.3468 34.9896 98.7308 35.2296C99.1148 35.4576 99.5348 35.5716 99.9908 35.5716ZM111.545 36.9576C110.909 36.9576 110.345 36.8376 109.853 36.5976C109.373 36.3456 108.977 36.0276 108.665 35.6436V36.7776H106.991V22.8276H108.665V30.3336C108.965 29.9376 109.385 29.6196 109.925 29.3796C110.465 29.1396 111.077 29.0196 111.761 29.0196C112.421 29.0196 113.027 29.1816 113.579 29.5056C114.131 29.8176 114.575 30.2676 114.911 30.8556C115.247 31.4436 115.415 32.1336 115.415 32.9256C115.415 33.7776 115.235 34.5036 114.875 35.1036C114.515 35.7036 114.041 36.1656 113.453 36.4896C112.865 36.8016 112.229 36.9576 111.545 36.9576ZM111.185 35.5176C111.917 35.5176 112.517 35.2776 112.985 34.7976C113.465 34.3056 113.705 33.6816 113.705 32.9256C113.705 32.4456 113.591 32.0136 113.363 31.6296C113.147 31.2336 112.847 30.9216 112.463 30.6936C112.091 30.4656 111.665 30.3516 111.185 30.3516C110.561 30.3516 110.021 30.5196 109.565 30.8556C109.109 31.1916 108.809 31.6236 108.665 32.1516V33.6816C108.809 34.2096 109.103 34.6476 109.547 34.9956C109.991 35.3436 110.537 35.5176 111.185 35.5176ZM119.767 36.9216C119.227 36.9216 118.705 36.8316 118.201 36.6516C117.709 36.4596 117.301 36.1776 116.977 35.8056L117.697 34.8336C117.997 35.1336 118.315 35.3616 118.651 35.5176C118.987 35.6616 119.311 35.7336 119.623 35.7336C119.983 35.7336 120.295 35.6616 120.559 35.5176C120.835 35.3736 120.973 35.1276 120.973 34.7796C120.973 34.5156 120.883 34.3056 120.703 34.1496C120.535 33.9936 120.313 33.8736 120.037 33.7896C119.773 33.6936 119.497 33.5976 119.209 33.5016C117.937 33.0936 117.301 32.3676 117.301 31.3236C117.301 30.9396 117.397 30.5736 117.589 30.2256C117.793 29.8776 118.087 29.5956 118.471 29.3796C118.867 29.1636 119.353 29.0556 119.929 29.0556C120.445 29.0556 120.907 29.1216 121.315 29.2536C121.723 29.3856 122.107 29.5956 122.467 29.8836L121.801 30.9096C121.585 30.6936 121.327 30.5316 121.027 30.4236C120.739 30.3036 120.475 30.2376 120.235 30.2256C119.911 30.2256 119.623 30.3036 119.371 30.4596C119.131 30.6156 119.011 30.8316 119.011 31.1076C118.999 31.3596 119.077 31.5636 119.245 31.7196C119.413 31.8636 119.629 31.9836 119.893 32.0796C120.169 32.1756 120.445 32.2656 120.721 32.3496C121.261 32.5296 121.717 32.7756 122.089 33.0876C122.473 33.3996 122.665 33.8556 122.665 34.4556C122.665 35.1276 122.425 35.7096 121.945 36.2016C121.465 36.6816 120.739 36.9216 119.767 36.9216Z" fill="#FFFFFF"/>
</svg>
