<?xml version="1.0" standalone="no"?>
<!DOCTYPE svg PUBLIC "-//W3C//DTD SVG 20010904//EN"
 "http://www.w3.org/TR/2001/REC-SVG-20010904/DTD/svg10.dtd">
<svg version="1.0" xmlns="http://www.w3.org/2000/svg"
 width="120" height="100" viewBox="0 0 290.000000 174.000000"
 preserveAspectRatio="xMidYMid meet">
<metadata>
Created by potrace 1.10, written by Peter Selinger 2001-2011
</metadata>
<g transform="translate(0.000000,174.000000) scale(0.100000,-0.100000)"
fill="#000000" stroke="none">
<path d="M2169 1682 c-18 -26 -97 -128 -174 -227 -135 -172 -342 -449 -379
-507 l-18 -28 -130 180 c-117 162 -132 180 -158 180 l-29 0 39 -52 c21 -29 86
-118 143 -198 l104 -144 -27 -36 c-15 -19 -84 -113 -154 -207 -122 -168 -125
-173 -97 -173 26 0 43 19 161 183 73 100 136 185 139 189 4 5 69 -78 145 -182
125 -172 140 -190 167 -190 l29 0 -82 113 c-152 209 -205 282 -212 295 -6 11
350 538 521 770 30 41 53 76 50 78 -2 2 -19 -17 -38 -44z"/>
<path d="M5 875 l0 -405 22 0 23 0 2 376 3 377 250 -364 c137 -200 323 -463
413 -584 181 -246 240 -320 158 -200 -30 44 -225 333 -433 643 -360 536 -379
562 -408 562 l-30 0 0 -405z m45 365 c0 -5 -4 -10 -10 -10 -5 0 -10 5 -10 10
0 6 5 10 10 10 6 0 10 -4 10 -10z"/>
<path d="M690 875 l0 -405 275 0 c268 0 275 0 275 20 0 19 -7 20 -255 20
l-255 0 0 180 0 180 235 0 c228 0 235 1 235 20 0 19 -7 20 -235 20 l-235 0 0
165 0 165 250 0 c243 0 250 1 250 20 0 20 -7 20 -270 20 l-270 0 0 -405z"/>
<path d="M1950 1260 c0 -19 7 -20 145 -20 l145 0 0 -385 0 -385 25 0 25 0 -2
385 -3 385 147 0 c141 0 146 1 141 20 -5 19 -14 20 -314 20 -302 0 -309 0
-309 -20z"/>
<path d="M2792 694 c-24 -17 -30 -58 -9 -71 6 -4 28 -13 47 -18 48 -14 49 -49
2 -53 -22 -2 -34 2 -38 12 -7 17 -34 22 -34 7 0 -14 27 -39 50 -46 11 -3 32 0
47 7 23 11 28 20 28 48 0 31 -4 35 -35 45 -62 18 -76 36 -42 54 13 7 27 6 47
-5 36 -19 47 -8 16 17 -28 23 -49 24 -79 3z"/>
<path d="M2698 628 c-3 -67 -5 -73 -25 -76 -13 -2 -23 1 -23 7 0 6 -7 11 -15
11 -22 0 -18 -17 8 -34 29 -20 66 -10 78 21 5 13 9 51 9 84 0 45 -3 59 -15 59
-11 0 -15 -17 -17 -72z"/>
<path d="M2557 554 c-13 -13 -7 -24 14 -24 11 0 19 5 17 12 -5 14 -22 21 -31
12z"/>
</g>
</svg>
